<?xml version="1.0" encoding="iso-8859-1"?>
<!-- Uploaded to: SVG Repo, www.svgrepo.com, Generator: SVG Repo Mixer Tools -->
<svg version="1.1" id="Layer_1" xmlns="http://www.w3.org/2000/svg" xmlns:xlink="http://www.w3.org/1999/xlink" 
	 viewBox="0 0 512 512" xml:space="preserve">
<path style="fill:#FF5023;" d="M298.667,85.333c0-23.565-19.102-42.667-42.667-42.667c-23.565,0-42.667,19.102-42.667,42.667
	c0,15.791,8.583,29.567,21.333,36.945v34.166h42.667v-34.166C290.082,114.9,298.667,101.124,298.667,85.333z"/>
<path style="fill:#BF3C1A;" d="M256,42.667v113.778h21.333v-34.166c12.749-7.378,21.333-21.154,21.333-36.945
	C298.667,61.769,279.565,42.667,256,42.667z"/>
<rect x="184.889" y="241.778" style="fill:#1E2E3B;" width="142.222" height="56.889"/>
<path style="fill:#BFE4F8;" d="M426.667,305.778H384c0-70.579-57.421-128-128-128s-128,57.421-128,128H85.333
	c0-94.107,76.56-170.667,170.667-170.667S426.667,211.671,426.667,305.778z"/>
<path style="fill:#93C7EF;" d="M256,135.111v42.667c70.579,0,128,57.421,128,128h42.667
	C426.667,211.671,350.106,135.111,256,135.111z"/>
<polygon style="fill:#1E2E3B;" points="389.794,374.044 122.206,374.044 63.566,469.333 113.664,469.333 148.673,412.444 
	234.667,412.444 234.667,469.333 277.333,469.333 277.333,412.444 363.327,412.444 398.336,469.333 448.434,469.333 "/>
<path style="fill:#93C7EF;" d="M512,327.111c0,23.563-0.001,56.889-0.001,56.889H0c0,0,0-33.326,0-56.889l0,0
	c0-23.563,19.102-42.667,42.667-42.667h426.667C492.898,284.444,512,303.548,512,327.111L512,327.111z"/>
<g>
	<circle style="fill:#FFDA44;" cx="64" cy="334.222" r="21.333"/>
	<circle style="fill:#FFDA44;" cx="160" cy="334.222" r="21.333"/>
</g>
<path style="fill:#5A8BB0;" d="M469.333,284.444H256V384h255.999c0,0,0.001-33.326,0.001-56.889
	C512,303.548,492.898,284.444,469.333,284.444z"/>
<circle style="fill:#FFDA44;" cx="256" cy="334.222" r="21.333"/>
<g>
	<path style="fill:#FF9811;" d="M256,312.889c11.782,0,21.333,9.552,21.333,21.333s-9.552,21.333-21.333,21.333"/>
	<circle style="fill:#FF9811;" cx="352" cy="334.222" r="21.333"/>
	<circle style="fill:#FF9811;" cx="448" cy="334.222" r="21.333"/>
</g>
</svg>